<svg width="68" height="69" viewBox="0 0 68 69" fill="none" xmlns="http://www.w3.org/2000/svg">
<path d="M25.3397 12.7094L2.87049 60.3441C2.13901 61.8948 3.57019 63.5868 5.22076 63.1226L22.9277 58.1435L23.7108 60.3434C23.7108 60.3434 24.1455 61.7747 24.6906 62.3623C25.7285 63.4811 27.6678 63.5741 28.9095 62.6869C29.5697 62.2151 29.234 58.1435 29.234 58.1435C29.234 58.1435 30.1757 56.6304 31.5057 56.8453C32.686 57.0361 33.4529 58.1435 33.4529 58.1435V63.3359C33.4529 63.3359 33.7499 65.5111 34.751 66.2567C35.9707 67.1651 37.565 67.3271 38.6453 66.2567C39.4753 65.4343 39.6189 63.3359 39.6189 63.3359V52.7887L64.5669 45.7252C65.6542 45.4173 66.269 44.281 65.8957 43.2144C64.2117 38.4032 59.4654 25.8439 53.5736 18.8755C47.8568 12.114 36.6956 5.45268 32.337 2.99368C31.3517 2.43781 30.1229 2.84408 29.6293 3.86203L25.3397 12.7094ZM25.3397 12.7094C25.3397 12.7094 27.3581 16.3581 29.5585 17.5774C32.6625 19.2973 34.467 16.8025 37.3472 18.8755C40.6163 21.2284 37.7779 25.1142 40.917 27.6378C44.0779 30.1787 48.6046 24.6092 51.3019 27.6378C54.0202 30.6899 48.399 34.2638 50.0038 38.0227C51.0952 40.579 54.0783 40.5513 54.8718 43.2151C55.3783 44.9156 54.8718 47.7585 54.8718 47.7585" stroke="#3B82F6" stroke-width="4"/>
<circle cx="39.9434" cy="39.9699" r="3.84152" stroke="#3B82F6" stroke-width="4"/>
<circle cx="21.7698" cy="46.4604" r="3.84152" stroke="#3B82F6" stroke-width="4"/>
<path d="M31.96 31.9996C31.4102 32.8073 30.6301 33.4309 29.7211 33.7892C28.8121 34.1475 27.8164 34.224 26.8633 34.0087C25.9103 33.7934 25.0441 33.2963 24.3774 32.5821C23.7107 31.8679 23.2743 30.9695 23.1251 30.0039C22.9758 29.0383 23.1206 28.0502 23.5406 27.168C23.9606 26.2858 24.6363 25.5504 25.4799 25.0575C26.3235 24.5645 27.2959 24.3368 28.2706 24.404" stroke="#3B82F6" stroke-width="4" stroke-linecap="round"/>
<circle cx="32.1547" cy="26.9887" r="1.29811" fill="#3B82F6"/>
</svg>
